# xmcd CD database file
#
# Track frame offsets:
#	150
#	25476
#	48711
#	68541
#	85032
#	100941
#	119518
#	135566
#	154864
#	178519
#	196939
#
# Disc length: 2903 seconds
#
# Revision: 0
# Processed by: cddbd v1.4PL0 Copyright (c) Steve Scherf et al.
# Submitted via: CDex 1.50Beta7
#
DISCID=900b550b
DTITLE=Chris Holzhaus - Welcome to Bluzhill, Texas
DYEAR=1998
DGENRE=Blues
TTITLE0=Going Down to New Orleans
TTITLE1=I'm Ready
TTITLE2=Right or Wrong
TTITLE3=Tribute to Albert
TTITLE4=Got to Find My Baby
TTITLE5=One Night
TTITLE6=Toughen Up
TTITLE7=Midnight Sun
TTITLE8=Annie had a Baby
TTITLE9=Living It Up
TTITLE10=Morgan City Fools
EXTD=YEAR: 1998
EXTT0=
EXTT1=
EXTT2=
EXTT3=
EXTT4=
EXTT5=
EXTT6=
EXTT7=
EXTT8=
EXTT9=
EXTT10=
PLAYORDER=
